<svg height="512pt" viewBox="-6 0 512 512" width="512pt" xmlns="http://www.w3.org/2000/svg"
>
    <linearGradient id="a" gradientTransform="matrix(.654102 0 0 -.654102 -5.648726 510.973452)"
                    gradientUnits="userSpaceOnUse" x1="391.3761" x2="391.3761" y1="-3.5606" y2="884.2955">
        <stop offset="0" stop-color="#e93e3a"/>
        <stop offset=".352" stop-color="#ed683c"/>
        <stop offset=".701" stop-color="#f3903f"/>
        <stop offset="1" stop-color="#fdc70c"/>
    </linearGradient>
    <g fill="url(#a)">
        <path d="m131.957031 318.261719c0 65.390625 53.007813 118.394531 118.394531 118.394531 65.386719 0 118.394532-53.003906 118.394532-118.394531 0-65.386719-53.007813-118.394531-118.394532-118.394531-65.355468.078124-118.316406 53.039062-118.394531 118.394531zm215.261719 0c0 53.5-43.367188 96.871093-96.867188 96.871093s-96.867187-43.371093-96.867187-96.871093 43.367187-96.867188 96.867187-96.867188c53.472657.058594 96.808594 43.394531 96.867188 96.867188zm0 0"/>
        <path d="m239.589844 242.921875v64.578125h-64.582032v21.527344h64.582032v64.578125h21.523437v-64.578125h64.582031v-21.527344h-64.582031v-64.578125zm0 0"/>
        <path d="m496.710938 196.347656-63.386719-51.308594v-85.09375c0-5.941406-4.816407-10.761718-10.761719-10.761718h-64.578125c-5.945313 0-10.765625 4.820312-10.765625 10.761718v15.390626l-90.097656-72.941407c-3.949219-3.191406-9.589844-3.191406-13.539063 0l-239.589843 193.953125c-4.621094 3.742188-5.335938 10.515625-1.59375 15.136719.003906.007813.007812.011719.011718.019531l27.125 33.363282c3.742188 4.605468 10.507813 5.308593 15.121094 1.574218l22.71875-18.394531v262.425781h-32.289062v21.527344h430.527343v-21.527344h-32.289062v-262.425781l22.722656 18.394531c4.609375 3.734375 11.375 3.03125 15.121094-1.574218l27.121093-33.363282c3.75-4.613281 3.050782-11.394531-1.5625-15.140625-.003906-.003906-.011718-.011719-.015624-.015625zm-127.964844-125.636718h43.054687v56.894531l-43.054687-34.839844zm43.050781 419.761718h-322.894531v-279.84375l161.449218-130.707031 161.445313 130.707031zm49.449219-267.519531-204.125-165.246094c-3.949219-3.195312-9.589844-3.195312-13.539063 0l-204.125 165.246094-13.539062-16.628906 224.433593-181.714844 224.433594 181.714844zm0 0"/>
    </g>
</svg>